<svg xmlns="http://www.w3.org/2000/svg" viewBox="0 0 60 60"><g id="圖層_4" data-name="圖層 4"><path d="M23.79,46.72a9.74,9.74,0,0,1-2.26-.93l-.17-.11a19.58,19.58,0,0,1-10.77-14,25.55,25.55,0,0,1-.07-7.14,19.77,19.77,0,0,1,5.13-10.07A19.35,19.35,0,0,1,30,8.22a19.21,19.21,0,0,1,14.19,6.06,19.47,19.47,0,0,1,5.29,10.28,26.47,26.47,0,0,1,0,6.72h0a20,20,0,0,1-7.58,12.4c-1.18.89-4.83,3-5.64,3a.65.65,0,0,1-.49-.21c-.23-.26-.22-.6-.13-1.39.17-1.43.39-1.94,1.4-2.36a17.44,17.44,0,0,0,4.42-3.17,16.93,16.93,0,0,0,4.45-7.84,21.27,21.27,0,0,0-.1-7.75A16.59,16.59,0,0,0,33.37,12.08a21.19,21.19,0,0,0-6.65,0A16.75,16.75,0,0,0,14.16,24.33a22.29,22.29,0,0,0,0,7.38,17,17,0,0,0,7.07,10,15.13,15.13,0,0,0,1.8,1c1,.44,1.23.95,1.38,2.37.09.75.1,1.13-.13,1.4A.69.69,0,0,1,23.79,46.72ZM30,9.22a18.42,18.42,0,0,0-13.63,5.91,18.89,18.89,0,0,0-4.88,9.58,25,25,0,0,0,.08,6.74,18.69,18.69,0,0,0,10.3,13.38l.17.11c.58.27,1.08.49,1.42.63,0-.09,0-.21,0-.36-.14-1.27-.26-1.32-.78-1.55a17.53,17.53,0,0,1-2-1.11A18.08,18.08,0,0,1,13.19,32a23.57,23.57,0,0,1,0-7.86,17.77,17.77,0,0,1,13.33-13,21.94,21.94,0,0,1,7.05,0A17.58,17.58,0,0,1,46.79,23.68a21.62,21.62,0,0,1,.11,8.25,18,18,0,0,1-4.71,8.31,18.21,18.21,0,0,1-4.75,3.38c-.51.21-.63.27-.79,1.55,0,.15,0,.28,0,.38a28.72,28.72,0,0,0,4.7-2.67,19,19,0,0,0,7.21-11.77,26.48,26.48,0,0,0,0-6.36,18.45,18.45,0,0,0-5-9.77A18.17,18.17,0,0,0,30,9.22Zm19,22h0Z"/><path d="M23,39.19c-.12,0-.32,0-1.42-.88l-.14-.07A14.26,14.26,0,0,1,17,31.13a15.84,15.84,0,0,1,0-6.47,13.9,13.9,0,0,1,9-9.51,16.2,16.2,0,0,1,6.94-.26A13.47,13.47,0,0,1,43.31,29.54a13.31,13.31,0,0,1-2.88,6.82c-.54.7-2.66,2.81-3.35,2.81s-.6-.51-.6-1.87V35.92a.55.55,0,0,1,.11-.33l.95-1.13A9.89,9.89,0,0,0,37,20.93a9.5,9.5,0,0,0-5.27-2.71,6.53,6.53,0,0,0-3.14,0,9.39,9.39,0,0,0-5.46,2.73,9.83,9.83,0,0,0-.57,13.52l.94,1.14a.47.47,0,0,1,.12.32V37.3C23.61,38.7,23.51,39.19,23,39.19Zm14-1Zm-15-.78.14.07c.17.14.33.27.47.37,0-.15,0-.34,0-.55V36.1l-.83-1a10.81,10.81,0,0,1,.64-14.87,10.54,10.54,0,0,1,6-3,7.57,7.57,0,0,1,3.48,0,10.4,10.4,0,0,1,5.8,3,10.88,10.88,0,0,1,.61,14.88l-.83,1v1.2c0,.2,0,.38,0,.54a15.22,15.22,0,0,0,2.16-2.1,12.36,12.36,0,0,0,2.67-6.33h0a12.46,12.46,0,0,0-9.6-13.53,15.27,15.27,0,0,0-6.39.22A13,13,0,0,0,18,24.92a14.77,14.77,0,0,0,0,6A13.19,13.19,0,0,0,22,37.41Z"/><path d="M30.29,31.6a5,5,0,0,1-3.51-1.43A4.79,4.79,0,0,1,25,26.35a5,5,0,0,1,2.81-4.43,5.21,5.21,0,0,1,2.88-.41h0a5.05,5.05,0,0,1-.44,10.09Zm-2.84-2.16h0a4,4,0,0,0,6.87-2.91,4.08,4.08,0,0,0-3.7-4h-.07a4.37,4.37,0,0,0-2.26.32A4,4,0,0,0,26,26.35a3.83,3.83,0,0,0,1.38,3.06Z"/><path d="M30.34,51.78a4.64,4.64,0,0,1-1.16-.11A3.61,3.61,0,0,1,27.6,51a2.91,2.91,0,0,1-.49-.5c-.8-.76-1.12-2.15-1.63-5.63-1.2-8.35-.64-9.65-.46-10.08.68-1.6,2.48-2.51,5-2.52h0a6.08,6.08,0,0,1,3.93,1.18l.05,0,.08.05a3.15,3.15,0,0,1,1,1.15,4.42,4.42,0,0,1,.38,1.71,25.51,25.51,0,0,1-.13,3.66h0c-.16,1.77-.48,4.5-.75,6.35a13.62,13.62,0,0,1-.71,3.21,3.46,3.46,0,0,1-1,1.44,3.36,3.36,0,0,1-1.32.62A4.63,4.63,0,0,1,30.34,51.78ZM30,33.26h0c-2.05,0-3.53.7-4,1.91-.23.55-.48,2.53.53,9.55.44,3,.74,4.49,1.39,5.11a2.25,2.25,0,0,0,.36.38,2.92,2.92,0,0,0,1.17.49,4.06,4.06,0,0,0,.95.08,3.86,3.86,0,0,0,.95-.08,2.3,2.3,0,0,0,.93-.44,2.53,2.53,0,0,0,.75-1,12.75,12.75,0,0,0,.64-3c.27-1.84.59-4.55.75-6.3a24.49,24.49,0,0,0,.12-3.51,3.54,3.54,0,0,0-.28-1.33,2.15,2.15,0,0,0-.72-.78l-.13-.09A5.12,5.12,0,0,0,30,33.26ZM34.85,40h0Z"/></g></svg>