<svg xmlns="http://www.w3.org/2000/svg" viewBox="0 0 60 60"><g id="圖層_4" data-name="圖層 4"><g id="_16.Behance" data-name="16.Behance"><path d="M21.86,43.27H9.63a1.4,1.4,0,0,1-1.41-1.41v-24a1.4,1.4,0,0,1,1.41-1.41h11a7.71,7.71,0,0,1,7.73,7.52,7.21,7.21,0,0,1-1,3.87,8.69,8.69,0,0,1-5.55,15.47ZM9.63,17.41a.4.4,0,0,0-.41.41v24a.4.4,0,0,0,.41.41H21.86a7.7,7.7,0,0,0,4.6-13.94.5.5,0,0,1-.13-.67,6.35,6.35,0,0,0,1-3.71,6.71,6.71,0,0,0-6.73-6.54ZM22,38.53H13.51A.5.5,0,0,1,13,38V31.22a.5.5,0,0,1,.5-.5H22a3.91,3.91,0,0,1,0,7.81Zm-8-1h8a2.91,2.91,0,0,0,0-5.81H14Zm6.68-10.65H13.51a.5.5,0,0,1-.5-.5V21.7a.5.5,0,0,1,.5-.5h7.18A2.88,2.88,0,0,1,23.53,24,2.84,2.84,0,0,1,20.69,26.88Zm-6.68-1h6.68a1.84,1.84,0,0,0,0-3.68H14Z"/><path d="M41.38,43.59A10.66,10.66,0,1,1,51.72,32.86l0,.16a.5.5,0,0,1,0,.12,1.47,1.47,0,0,1-1.46,1.46H37.15a4.68,4.68,0,0,0,4.29,3.2,4,4,0,0,0,2.94-1.18.88.88,0,0,1,.62-.26h4.84a.92.92,0,0,1,.81.47.83.83,0,0,1,0,.87L50,38.81A10.22,10.22,0,0,1,41.38,43.59Zm0-20.32a9.67,9.67,0,0,0,0,19.32,9.2,9.2,0,0,0,7.77-4.3l.56-1-4.66,0a5,5,0,0,1-3.61,1.44A5.73,5.73,0,0,1,36,34.2a.5.5,0,0,1,.1-.42.52.52,0,0,1,.39-.18H50.32a.45.45,0,0,0,.45-.41l0-.14a.5.5,0,0,1,0-.12A9.51,9.51,0,0,0,41.38,23.27ZM45,37.36h0Zm.08,0Zm4.69-.12Zm1.94-4.27h0ZM45.59,30.5H37.13a.51.51,0,0,1-.44-.26.49.49,0,0,1,0-.51,5.62,5.62,0,0,1,4.67-2.68A5.42,5.42,0,0,1,46,29.74a.49.49,0,0,1,0,.51A.5.5,0,0,1,45.59,30.5Zm-7.44-1h6.44a4.34,4.34,0,0,0-3.21-1.45A4.51,4.51,0,0,0,38.15,29.5Z"/><path d="M45.48,22.1H36.7a1.23,1.23,0,0,1-1.24-1.25V18.67a1.23,1.23,0,0,1,1.24-1.25h8.73a1.24,1.24,0,0,1,1.24,1.25v2.18a1,1,0,0,1-.28.81A1.26,1.26,0,0,1,45.48,22.1ZM36.7,18.42a.23.23,0,0,0-.24.25v2.18a.23.23,0,0,0,.24.25h8.78a.22.22,0,0,0,.15-.09s0-.14,0-.16V18.67a.23.23,0,0,0-.24-.25Z"/></g></g></svg>