<svg xmlns="http://www.w3.org/2000/svg" viewBox="0 0 60 60"><g id="圖層_4" data-name="圖層 4"><g id="_20.Dribbble" data-name="20.Dribbble"><path d="M41,48.69a.52.52,0,0,1-.21,0,.53.53,0,0,1-.28-.37,86.36,86.36,0,0,0-4.6-16.18.47.47,0,0,1,0-.43.51.51,0,0,1,.35-.25A26.17,26.17,0,0,1,40.85,31a27.35,27.35,0,0,1,10.3,2.06.5.5,0,0,1,.3.55,21.75,21.75,0,0,1-6.1,11.76,20.77,20.77,0,0,1-4.08,3.21A.48.48,0,0,1,41,48.69ZM37.07,32.31a87.31,87.31,0,0,1,4.3,15.07,20.95,20.95,0,0,0,9-13.5A26,26,0,0,0,40.85,32,25.18,25.18,0,0,0,37.07,32.31Z"/><path d="M32.23,23.42a.49.49,0,0,1-.44-.26A85.59,85.59,0,0,0,23.17,10a.51.51,0,0,1-.09-.45.52.52,0,0,1,.32-.33,20.34,20.34,0,0,1,6.6-1,21.65,21.65,0,0,1,15.27,6.29.49.49,0,0,1,.28.45h0a.57.57,0,0,1-.17.41,50.23,50.23,0,0,1-13,8A.64.64,0,0,1,32.23,23.42ZM24.4,10a84.9,84.9,0,0,1,8.06,12.3A49.36,49.36,0,0,0,44.31,15,20.65,20.65,0,0,0,30,9.22,19.79,19.79,0,0,0,24.4,10Z"/><path d="M51.28,31.46a.39.39,0,0,1-.18,0,28.33,28.33,0,0,0-10.19-1.88,30.43,30.43,0,0,0-5.4.53.5.5,0,0,1-.54-.3c-.57-1.32-1.23-2.76-2-4.39a.51.51,0,0,1,0-.4.47.47,0,0,1,.27-.28,51.54,51.54,0,0,0,13.22-8.22.54.54,0,0,1,.38-.12.51.51,0,0,1,.34.19A21.57,21.57,0,0,1,51.78,30v1a.49.49,0,0,1-.22.41A.47.47,0,0,1,51.28,31.46ZM40.91,28.54a29.05,29.05,0,0,1,9.87,1.7V30a20.59,20.59,0,0,0-4.1-12.42,52.42,52.42,0,0,1-12.6,7.83c.63,1.31,1.17,2.5,1.65,3.6A30.91,30.91,0,0,1,40.91,28.54Z"/><path d="M30,51.78a21.45,21.45,0,0,1-13.39-4.63.5.5,0,0,1-.15-.61A27,27,0,0,1,33.8,32a.52.52,0,0,1,.6.3,87.5,87.5,0,0,1,4.82,17.07.5.5,0,0,1-.29.54A21.84,21.84,0,0,1,30,51.78ZM17.54,46.61A20.47,20.47,0,0,0,30,50.78a21,21,0,0,0,8.16-1.66,87.24,87.24,0,0,0-4.52-16.07A26,26,0,0,0,17.54,46.61Z"/><path d="M15,45.55a.52.52,0,0,1-.36-.14A21.83,21.83,0,0,1,8.22,30v-.85a.5.5,0,0,1,.54-.5,52.36,52.36,0,0,0,22.08-3,.48.48,0,0,1,.61.24c.75,1.43,1.38,2.76,1.94,4.07a.55.55,0,0,1,0,.42.52.52,0,0,1-.32.26,27.84,27.84,0,0,0-3.29,1.15h0a28.64,28.64,0,0,0-9,6.12,28.27,28.27,0,0,0-5.34,7.37.52.52,0,0,1-.37.27ZM9.22,29.68V30a20.82,20.82,0,0,0,5.6,14.2,29.42,29.42,0,0,1,5.2-7,29.79,29.79,0,0,1,9.36-6.33,29.42,29.42,0,0,1,2.86-1c-.43-1-.92-2-1.47-3.1A53.18,53.18,0,0,1,9.22,29.68Zm20.35,1.65h0Z"/><path d="M13,27.31c-1.35,0-2.76-.06-4.08-.16A.48.48,0,0,1,8.6,27a.5.5,0,0,1-.11-.39,21.65,21.65,0,0,1,6.1-12,23.52,23.52,0,0,1,6.26-4.35.5.5,0,0,1,.6.13,86.92,86.92,0,0,1,8.88,13.27.51.51,0,0,1,0,.42.48.48,0,0,1-.3.29A49.68,49.68,0,0,1,13,27.31ZM9.57,26.19c1.14.08,2.32.12,3.46.12a48.78,48.78,0,0,0,16.14-2.7,84.79,84.79,0,0,0-8.24-12.3,22.46,22.46,0,0,0-5.64,4A20.57,20.57,0,0,0,9.57,26.19Z"/></g></g></svg>