<svg xmlns="http://www.w3.org/2000/svg" viewBox="0 0 60 60"><g id="圖層_4" data-name="圖層 4"><g id="_01._Facebook" data-name="01. Facebook"><g id="Icon"><path d="M40.41,9.72h.07v6.2h-.07c-1.42,0-2.89,0-4.31.06a2.88,2.88,0,0,0-3.18,3.15c0,1.08,0,2.11,0,3.2,0,.53,0,1.07,0,1.62a1,1,0,0,0,1,1h6.35v6.72H33.91a1,1,0,0,0-1,1V50.27h-7s0-.06,0-.11V32.74a1,1,0,0,0-1-1H19.53a.41.41,0,0,1,0-.12V25.18a.45.45,0,0,1,0-.12h5.38a1,1,0,0,0,1-1V19.37a10.8,10.8,0,0,1,1.31-5.51,7.76,7.76,0,0,1,4.21-3.5,10.61,10.61,0,0,1,3.76-.64h5.22M19.55,24.92h0M40.41,8.72H35.19a12.05,12.05,0,0,0-4.1.69,8.88,8.88,0,0,0-4.74,3.95,11.85,11.85,0,0,0-1.44,6v4.69H19.64c-.8,0-1.12.27-1.12,1.12v6.44c0,.8.27,1.12,1.12,1.12h5.27V50.16c0,.8.32,1.12,1.12,1.12h6.66c1,0,1.22-.32,1.22-1.23V32.69h6.18c.91,0,1.17-.27,1.17-1.12V25.13c0-.86-.31-1.18-1.17-1.18H33.91c0-1.65,0-3.19,0-4.79A1.92,1.92,0,0,1,36.1,17c1.44-.06,2.87-.06,4.31-.06.75,0,1.07-.32,1.07-1.06V9.79c0-.75-.32-1.07-1.07-1.07Z"/></g></g></g></svg>