<svg xmlns="http://www.w3.org/2000/svg" viewBox="0 0 60 60"><g id="圖層_4" data-name="圖層 4"><path d="M30,19.52A10.48,10.48,0,1,1,19.52,30,10.49,10.49,0,0,1,30,19.52m0,19.19A8.71,8.71,0,1,0,21.29,30,8.72,8.72,0,0,0,30,38.71m0-20.19A11.48,11.48,0,1,0,41.48,30,11.49,11.49,0,0,0,30,18.52Zm0,19.19A7.71,7.71,0,1,1,37.71,30,7.72,7.72,0,0,1,30,37.71Z"/><path d="M39.69,9.72A10.6,10.6,0,0,1,50.28,20.31V39.69A10.6,10.6,0,0,1,39.69,50.28H20.31A10.6,10.6,0,0,1,9.72,39.69V20.31A10.6,10.6,0,0,1,20.31,9.72H39.69M20.31,48.47H39.69a8.79,8.79,0,0,0,8.78-8.78V20.31a8.79,8.79,0,0,0-8.78-8.78H20.31a8.79,8.79,0,0,0-8.78,8.78V39.69a8.79,8.79,0,0,0,8.78,8.78M39.69,8.72H20.31A11.6,11.6,0,0,0,8.72,20.31V39.69A11.6,11.6,0,0,0,20.31,51.28H39.69A11.6,11.6,0,0,0,51.28,39.69V20.31A11.6,11.6,0,0,0,39.69,8.72ZM20.31,47.47a7.79,7.79,0,0,1-7.78-7.78V20.31a7.79,7.79,0,0,1,7.78-7.78H39.69a7.79,7.79,0,0,1,7.78,7.78V39.69a7.79,7.79,0,0,1-7.78,7.78Z"/></g></svg>