<svg xmlns="http://www.w3.org/2000/svg" viewBox="0 0 60 60"><g id="圖層_4" data-name="圖層 4"><g id="_10.Linkedin" data-name="10.Linkedin"><path d="M40.69,23.18c8,0,9.59,4.79,9.59,12.51V50.22H43.45V37.39c0-3.18,0-8.5-5.58-8.5-6.26,0-6.26,6-6.26,8.29v13.1H24.78V23.87h6.45v2.89a1,1,0,0,0,1,1h.11a1,1,0,0,0,.89-.54,8.27,8.27,0,0,1,7.46-4m0-1a9.22,9.22,0,0,0-8.35,4.58h-.11V22.87H23.78V51.28h8.83V37.18c0-3.72.69-7.29,5.26-7.29s4.58,4.21,4.58,7.5V51.22h8.83V35.69c0-7.66-1.65-13.51-10.59-13.51Zm10.59,29Zm0,0v0Z"/><path d="M17.24,23.87V50.28H10.41V23.87h6.83m1-1H9.41V51.28h8.83V22.87Z"/><path d="M13.83,9.72a4.14,4.14,0,1,1-4.11,4.11,4.12,4.12,0,0,1,4.11-4.11m0-1a5.14,5.14,0,1,0,5.11,5.11,5.11,5.11,0,0,0-5.11-5.11Z"/></g></g></svg>