<svg xmlns="http://www.w3.org/2000/svg" viewBox="0 0 60 60"><g id="圖層_4" data-name="圖層 4"><g id="_09.Line" data-name="09.Line"><path d="M28.85,50.86A1.22,1.22,0,0,1,28,50.6c-.61-.5-.43-1.41-.35-1.8L27.94,47a3.54,3.54,0,0,0,0-1.66c-.08-.21-.52-.53-1.51-.76C15.89,43.19,8.22,35.78,8.22,27,8.22,17.15,18,9.13,30,9.13s21.75,8,21.81,17.87c0,3.93-1.52,7.51-4.65,11-4.51,5.21-14.48,11.54-16.91,12.56A3.74,3.74,0,0,1,28.85,50.86ZM30,10.13C18.53,10.13,9.22,17.7,9.22,27c0,8.27,7.31,15.25,17.37,16.61,1.29.29,2,.76,2.26,1.39a4.25,4.25,0,0,1,.07,2.18L28.66,49c-.13.67,0,.82,0,.85s.42.1,1.17-.22c2.31-1,12.2-7.27,16.55-12.29,3-3.27,4.4-6.64,4.4-10.3C50.73,17.71,41.39,10.13,30,10.13ZM28.75,33.19a1.61,1.61,0,0,1-1.61-1.61v-8.5a1.65,1.65,0,0,1,1.07-1.54,1.2,1.2,0,0,1,.49-.08,1.54,1.54,0,0,1,1.32.7l3.44,4.7V23.13a1.6,1.6,0,0,1,1.61-1.62,1.63,1.63,0,0,1,1.62,1.62v8.39a1.63,1.63,0,0,1-1.07,1.53,1.12,1.12,0,0,1-.55.09,1.63,1.63,0,0,1-1.29-.61l-3.41-4.68v3.73A1.58,1.58,0,0,1,28.75,33.19ZM28.7,22.46h-.12a.66.66,0,0,0-.44.61v8.5a.62.62,0,0,0,.61.61.59.59,0,0,0,.62-.61V26.32a.5.5,0,0,1,.9-.3l4.31,5.9a.6.6,0,0,0,.49.22h.16a.67.67,0,0,0,.46-.61V23.13a.63.63,0,0,0-.62-.62.59.59,0,0,0-.61.62v5.26a.5.5,0,0,1-.35.48.51.51,0,0,1-.56-.19L29.2,22.73A.56.56,0,0,0,28.7,22.46ZM21.63,33.19H17.38a1.65,1.65,0,0,1-1.61-1.61v-8.5a1.62,1.62,0,1,1,3.23,0V30h2.63a1.62,1.62,0,1,1,0,3.23ZM17.38,22.46a.62.62,0,0,0-.61.62v8.5a.65.65,0,0,0,.61.61h4.25a.62.62,0,1,0,0-1.23H18.5a.5.5,0,0,1-.5-.5V23.08A.63.63,0,0,0,17.38,22.46ZM43,33.14H38.74a1.62,1.62,0,0,1-1.62-1.62V23a1.58,1.58,0,0,1,1.62-1.61H43A1.62,1.62,0,0,1,44.61,23,1.59,1.59,0,0,1,43,24.64H40.41v1H43a1.62,1.62,0,0,1,1.62,1.61A1.58,1.58,0,0,1,43,28.89H40.41v1H43a1.62,1.62,0,0,1,1.62,1.61A1.6,1.6,0,0,1,43,33.14ZM38.74,22.41a.59.59,0,0,0-.62.61v8.5a.63.63,0,0,0,.62.62H43a.59.59,0,0,0,.62-.62.63.63,0,0,0-.62-.61H39.91a.5.5,0,0,1-.5-.5v-2a.5.5,0,0,1,.5-.5H43a.59.59,0,0,0,.62-.62.63.63,0,0,0-.62-.61H39.91a.5.5,0,0,1-.5-.5v-2a.5.5,0,0,1,.5-.5H43a.59.59,0,0,0,.62-.62.63.63,0,0,0-.62-.61ZM24.93,33.14a1.62,1.62,0,0,1-1.62-1.62V23a1.62,1.62,0,0,1,3.23,0v8.5A1.6,1.6,0,0,1,24.93,33.14Zm0-10.73a.59.59,0,0,0-.62.61v8.5a.63.63,0,0,0,.62.62.59.59,0,0,0,.61-.62V23A.63.63,0,0,0,24.93,22.41Z"/></g></g></svg>