<svg xmlns="http://www.w3.org/2000/svg" viewBox="0 0 60 60"><g id="圖層_4" data-name="圖層 4"><g id="_34.Messenger" data-name="34.Messenger"><g id="Icon"><path d="M17.25,51.72a1,1,0,0,1-.54-.15,1,1,0,0,1-.47-.82l-.1-6.66a19.61,19.61,0,0,1-7.92-15.6C8.22,17.34,18,8.28,30,8.28s21.81,9.06,21.81,20.21S42,48.7,30,48.7A24.29,24.29,0,0,1,24.2,48l-6.47,3.62A1.16,1.16,0,0,1,17.25,51.72ZM30,9.28c-11.44,0-20.75,8.61-20.75,19.21a18.63,18.63,0,0,0,7.72,15,.5.5,0,0,1,.2.39l.1,6.91L23.89,47a.42.42,0,0,1,.36-.05A23.36,23.36,0,0,0,30,47.7c11.44,0,20.75-8.62,20.75-19.21S41.45,9.28,30,9.28Zm2,26.34a1.2,1.2,0,0,1-.85-.35h0l-4.51-4.73a.41.41,0,0,0-.43-.06l-7.95,4.3a.8.8,0,0,1-1-.2.81.81,0,0,1,0-1l9.43-10a1.23,1.23,0,0,1,1.72,0l4.53,4.85a.33.33,0,0,0,.37.08l7.85-4.27a.8.8,0,0,1,1,.19.83.83,0,0,1,0,1l-9.27,9.86A1.24,1.24,0,0,1,32,35.62Zm-.14-1.06a.24.24,0,0,0,.3,0l8.41-8.94L33.83,29.3a1.32,1.32,0,0,1-1.61-.25L27.7,24.2a.28.28,0,0,0-.3,0l-8.57,9.1,6.92-3.73a1.39,1.39,0,0,1,1.6.24Z"/></g></g></g></svg>