<svg xmlns="http://www.w3.org/2000/svg" viewBox="0 0 60 60"><g id="圖層_4" data-name="圖層 4"><path d="M43.17,51.78H16.83a4.65,4.65,0,0,1-4.64-4.43L10.87,19.18a1.5,1.5,0,0,1,.42-1.13,1.54,1.54,0,0,1,1.12-.48h8.32c.47-5.28,4.46-9.35,9.27-9.35s8.8,4.07,9.27,9.35H47.6a1.54,1.54,0,0,1,1.1.46,1.62,1.62,0,0,1,.44,1.14L47.81,47.35A4.65,4.65,0,0,1,43.17,51.78ZM12.41,18.57a.56.56,0,0,0-.4.17.54.54,0,0,0-.15.39L13.18,47.3a3.66,3.66,0,0,0,3.65,3.48H43.17a3.66,3.66,0,0,0,3.65-3.48l1.32-28.17a.61.61,0,0,0-.16-.4.51.51,0,0,0-.38-.16H38.8a.5.5,0,0,1-.5-.48c-.24-5-3.88-8.87-8.3-8.87s-8.07,3.9-8.3,8.87a.5.5,0,0,1-.5.48ZM29.94,45.48a11.8,11.8,0,0,1-7-2.67l-.11-.09a.51.51,0,0,1-.1-.67l1.09-1.6a.47.47,0,0,1,.36-.21.49.49,0,0,1,.4.13l.13.12a9.21,9.21,0,0,0,5.21,2.08c2.32,0,4.29-1.35,4.29-2.94,0-2.07-1.54-2.86-4.81-4.05-2.74-1-6.14-2.26-6.14-6,0-3.27,2.91-5.73,6.79-5.73a11.09,11.09,0,0,1,6,1.88l.16.1a.51.51,0,0,1,.15.69l-1,1.61a.5.5,0,0,1-.32.23.54.54,0,0,1-.39-.08l-.13-.09c-.18-.11-.52-.33-.65-.39a8.27,8.27,0,0,0-3.8-1c-2.25,0-3.88,1.18-3.88,2.81s1.35,2.19,4.24,3.25,6.71,2.44,6.71,6.78C37.14,42.91,34,45.48,29.94,45.48Zm-6.1-3.25a10.6,10.6,0,0,0,6.1,2.25c3.47,0,6.2-2.13,6.2-4.85,0-3.64-3.08-4.76-6.06-5.84-2.52-.93-4.89-1.8-4.89-4.19,0-2.21,2-3.81,4.88-3.81a9.31,9.31,0,0,1,4.27,1.15c.09,0,.26.15.44.25l.47-.76a10,10,0,0,0-5.18-1.56c-3.31,0-5.79,2-5.79,4.73,0,3,2.79,4,5.48,5,3.3,1.22,5.47,2.22,5.47,5,0,2.17-2.38,3.94-5.29,3.94a9.89,9.89,0,0,1-5.58-2.1ZM36.72,18.57H23.27a.5.5,0,0,1-.36-.16.51.51,0,0,1-.13-.37C23,13.7,26.2,10.3,30,10.3s7,3.4,7.22,7.74a.51.51,0,0,1-.13.37A.52.52,0,0,1,36.72,18.57Zm-12.9-1H36.18C35.75,14,33.12,11.3,30,11.3S24.25,14,23.82,17.57Z"/></g></svg>