<svg xmlns="http://www.w3.org/2000/svg" viewBox="0 0 60 60"><g id="圖層_4" data-name="圖層 4"><g id="_13.Skype" data-name="13.Skype"><g id="Icon"><path d="M39.54,51.78a12.53,12.53,0,0,1-5.68-1.39,20.93,20.93,0,0,1-18.58-5.92,20.44,20.44,0,0,1-5.49-18.2A12,12,0,0,1,14.45,9.8,12.18,12.18,0,0,1,26.81,10a21,21,0,0,1,18.57,6.25,20,20,0,0,1,5.16,18.2,11.84,11.84,0,0,1-2.45,13.81A12.17,12.17,0,0,1,39.54,51.78Zm-5.6-2.42a.53.53,0,0,1,.24.06,11.14,11.14,0,0,0,13.21-1.91,10.75,10.75,0,0,0,2.18-12.8.48.48,0,0,1,0-.33,19,19,0,0,0-4.86-17.47A20,20,0,0,0,26.79,11a.49.49,0,0,1-.35-.07,11.21,11.21,0,0,0-11.5-.24,11,11,0,0,0-4.19,15.26.56.56,0,0,1,.06.36A19.15,19.15,0,0,0,16,43.77a19.89,19.89,0,0,0,17.85,5.6Zm-3.75-4.91a16.88,16.88,0,0,1-7.55-1.59c-3.7-2-5.32-5.51-4.75-7.8a3.13,3.13,0,0,1,3.34-2.35c2.14,0,2.81,1.38,3.46,2.72a5.34,5.34,0,0,0,2.6,3,8,8,0,0,0,6.53-.5,2.64,2.64,0,0,0,1.3-2,1.93,1.93,0,0,0-.61-1.58c-1.09-1-3.2-1.46-5.44-1.94-3.29-.71-7-1.51-9.3-4.29a7.23,7.23,0,0,1,.05-8.66C23.53,14.65,34,14.48,38.5,18c2.71,2.1,3.12,4.45,2.61,6a3.27,3.27,0,0,1-3.23,2.18c-2,0-2.68-1.19-3.34-2.34C33.76,22.4,33,21,29.69,21c-2.49,0-4,1-4.26,2-.16.69.33,1.38,1.34,1.88a22,22,0,0,0,4.69,1.39c4.93,1.11,11.07,2.5,11.07,9.06,0,3.53-2.13,6.43-5.84,8A17.46,17.46,0,0,1,30.19,44.45Zm-9-10.74a2.15,2.15,0,0,0-2.37,1.59c-.46,1.88,1,5,4.25,6.67,3.38,1.79,9.42,2,13.2.41h0c3.37-1.39,5.22-3.89,5.22-7,0-5.76-5.47-7-10.29-8.09a22,22,0,0,1-4.92-1.47c-1.44-.71-2.14-1.83-1.86-3C24.84,21.14,27,20,29.69,20c3.84,0,4.88,1.81,5.72,3.27.61,1.07,1.05,1.84,2.47,1.84a2.26,2.26,0,0,0,2.28-1.5c.39-1.12,0-3.06-2.27-4.84-4.12-3.17-13.93-3-17.28,1.29a6.21,6.21,0,0,0-.06,7.42c2,2.51,5.6,3.27,8.73,3.94,2.38.51,4.62,1,5.91,2.18A3,3,0,0,1,36.12,36a3.65,3.65,0,0,1-1.74,2.75,8.89,8.89,0,0,1-7.51.57,6.27,6.27,0,0,1-3.08-3.44C23.16,34.57,22.74,33.71,21.23,33.71Z"/></g></g></g></svg>