<svg xmlns="http://www.w3.org/2000/svg" viewBox="0 0 60 60"><defs><style>.cls-1{fill:#0c0c0c;}</style></defs><g id="圖層_4" data-name="圖層 4"><path class="cls-1" d="M46.12,39.5H28.54A.5.5,0,0,1,28,39V21.54a.51.51,0,0,1,.19-.4A9.92,9.92,0,0,1,34.4,19a9.66,9.66,0,0,1,9.72,8.51c0,.24,0,.47.05.71a5.46,5.46,0,0,1,2-.15h0a5.71,5.71,0,0,1,.16,11.38A.46.46,0,0,1,46.12,39.5ZM29,38.5H46l.12,0a4.71,4.71,0,0,0,0-9.41h0a3.78,3.78,0,0,0-.45,0,5,5,0,0,0-1.79.33.49.49,0,0,1-.47-.07.5.5,0,0,1-.2-.44c0-.11,0-.21,0-.32a7.11,7.11,0,0,0-.06-.92A8.65,8.65,0,0,0,34.4,20,8.92,8.92,0,0,0,29,21.78Z"/><path d="M25.31,39a.5.5,0,0,1-.5-.5V23.82a.5.5,0,0,1,.5-.5.5.5,0,0,1,.5.5V38.48A.5.5,0,0,1,25.31,39Z"/><path d="M21.41,38.27a.5.5,0,0,1-.5-.5V24.53a.5.5,0,0,1,.5-.5.51.51,0,0,1,.5.5V37.77A.5.5,0,0,1,21.41,38.27Z"/><path d="M17.5,37.8a.5.5,0,0,1-.5-.5V25a.5.5,0,0,1,1,0V37.3A.5.5,0,0,1,17.5,37.8Z"/><path d="M13.59,37.32a.5.5,0,0,1-.5-.5V25.48a.51.51,0,0,1,.5-.5.5.5,0,0,1,.5.5V36.82A.5.5,0,0,1,13.59,37.32Z"/><path d="M9.69,36.37a.5.5,0,0,1-.5-.5V26.44a.5.5,0,0,1,1,0v9.43A.5.5,0,0,1,9.69,36.37Z"/></g></svg>