<svg xmlns="http://www.w3.org/2000/svg" viewBox="0 0 60 60"><g id="圖層_4" data-name="圖層 4"><g id="_04.Twitter" data-name="04.Twitter"><path d="M38.19,13.69a7.77,7.77,0,0,1,5.66,2.45,1,1,0,0,0,.73.31l.21,0a21,21,0,0,0,3-.9,7.64,7.64,0,0,1-2.06,1.77,1,1,0,0,0,.51,1.86h.12a18.9,18.9,0,0,0,2-.35,17.64,17.64,0,0,1-2.1,1.79,1,1,0,0,0-.4.95,6.12,6.12,0,0,1,.05,1c0,11.69-8.9,23.78-23.79,23.78a23.72,23.72,0,0,1-9.39-1.92,18.38,18.38,0,0,0,9.53-3.84,1,1,0,0,0-.61-1.79,7.8,7.8,0,0,1-6.56-3.93,10.09,10.09,0,0,0,2.64-.34,1,1,0,0,0,.7-1,1,1,0,0,0-.8-.93,7.77,7.77,0,0,1-6-6.1,8.67,8.67,0,0,0,2.77.47,1,1,0,0,0,1-.71A1,1,0,0,0,15,25.1c-1.49-1-4.64-4.44-3-9a25.6,25.6,0,0,0,17.63,8.28h0a1,1,0,0,0,.78-.37,1,1,0,0,0,.19-.88,6.68,6.68,0,0,1-.18-1.72,7.72,7.72,0,0,1,7.72-7.72m0-1a8.72,8.72,0,0,0-8.72,8.72,8,8,0,0,0,.21,2,24.57,24.57,0,0,1-17.93-9.1,8.77,8.77,0,0,0,2.66,11.65,8.34,8.34,0,0,1-3.93-1.06,8.81,8.81,0,0,0,7,8.67,9.46,9.46,0,0,1-2.46.29,7.34,7.34,0,0,1-1.48-.13,8.76,8.76,0,0,0,8.14,6.06,17.42,17.42,0,0,1-10.88,3.73c-.66,0-1.34,0-2-.11a24.63,24.63,0,0,0,13.41,3.93c16.06,0,24.79-13.29,24.79-24.78a7,7,0,0,0-.06-1.12,17.3,17.3,0,0,0,4.42-4.63,17.94,17.94,0,0,1-5,1.38,8.48,8.48,0,0,0,3.83-4.84,18.3,18.3,0,0,1-5.53,2.13,8.78,8.78,0,0,0-6.39-2.76Zm13.09,4.09Z"/></g></g></svg>