<svg xmlns="http://www.w3.org/2000/svg" viewBox="0 0 60 60"><g id="圖層_4" data-name="圖層 4"><path d="M49.4,13.16a.79.79,0,0,1,.63.26,2.27,2.27,0,0,1,.15,1.79.15.15,0,0,0,0,.07L43.76,45.47c-.2.91-.53,1.37-1,1.37a2.23,2.23,0,0,1-1-.34L32,39.33a1,1,0,0,0-1.29.08L26,44l-.16.16.55-8,17.83-16.1a1.44,1.44,0,0,0,.55-1.65,1.41,1.41,0,0,0-1.39-.86,2.91,2.91,0,0,0-1.57.52l-22,13.86-9.22-2.87a2.16,2.16,0,0,1-.81-.42,3,3,0,0,1,1.31-.81L48.78,13.28a1.83,1.83,0,0,1,.62-.12m0-1a2.8,2.8,0,0,0-1,.18L10.7,26.89h0c-2.58,1-2.54,2.44-.44,3.11l9.66,3L42.33,18.9a2,2,0,0,1,1-.36c.48,0,.68.32.18.76L25.41,35.68l-.69,10a2.46,2.46,0,0,0,2-1l4.72-4.55,9.79,7.21a3.28,3.28,0,0,0,1.57.5c1,0,1.64-.71,2-2.15l6.43-30.28h0c.46-2.15-.46-3.25-1.76-3.25Zm1.76,3.25h0Z"/></g></svg>