<svg xmlns="http://www.w3.org/2000/svg" viewBox="0 0 60 60"><g id="圖層_4" data-name="圖層 4"><g id="_19.Tumblr" data-name="19.Tumblr"><g id="Icon"><path d="M33.36,53.78c-.44,0-.87,0-1.31,0a12.9,12.9,0,0,1-8.68-3.61,6.64,6.64,0,0,1-2.22-4.71V28.62H16.91a.5.5,0,0,1-.5-.5V22.59a1.06,1.06,0,0,1,.77-1.11C22.34,20,25,12.14,25,11.25a1,1,0,0,1,1.08-1h5.06a.91.91,0,0,1,1,1V21h9.55a.5.5,0,0,1,.5.5v6.65a.5.5,0,0,1-.5.5h-9.4c-.08,12.8,0,14.33,0,14.49a2.72,2.72,0,0,0,1.46,2,6.46,6.46,0,0,0,4.71.63,22.78,22.78,0,0,0,4.4-1.79.52.52,0,0,1,.51,0,.49.49,0,0,1,.26.43v6.18a1.05,1.05,0,0,1-.77,1.11A21.86,21.86,0,0,1,33.36,53.78ZM17.41,27.62h4.24a.51.51,0,0,1,.5.5v17.3a5.8,5.8,0,0,0,1.93,4,11.83,11.83,0,0,0,8,3.3,20.53,20.53,0,0,0,10.34-2l.14-.05s0-.06,0-.13V45.17a20.69,20.69,0,0,1-4,1.54A7.44,7.44,0,0,1,33.2,46a3.71,3.71,0,0,1-1.94-2.69c-.07-.45-.07-5.42,0-14.78v-.36a.5.5,0,0,1,.5-.5h9.39V22H31.6a.5.5,0,0,1-.5-.5V11.23h-5a.24.24,0,0,0-.12,0c0,1-2.69,9.52-8.47,11.19,0,0-.06.06-.06.16Z"/></g></g></g></svg>