<svg xmlns="http://www.w3.org/2000/svg" viewBox="0 0 60 60"><g id="圖層_4" data-name="圖層 4"><g id="_08.Whatsapp" data-name="08.Whatsapp"><path d="M30,9.72a20.28,20.28,0,0,1,0,40.56,20,20,0,0,1-11.15-3.35,1,1,0,0,0-.55-.16.86.86,0,0,0-.28,0L11.48,48.7l2.22-5.84a1,1,0,0,0-.13-1A20.09,20.09,0,0,1,9.72,30,20.31,20.31,0,0,1,30,9.72M36.56,43a4.39,4.39,0,0,0,3.18-1.17L42,39.55l.07-.08A3.48,3.48,0,0,0,42,34.83l-3.35-3.36a3.2,3.2,0,0,0-2.28-.94,3.17,3.17,0,0,0-3.05,2.21,1.23,1.23,0,0,1-1.15.79,1.09,1.09,0,0,1-.26,0c-2.14-.52-5-3.36-5.49-5.43l0-.1a1.15,1.15,0,0,1,.79-1.32,3.14,3.14,0,0,0,2.11-2.27,3.23,3.23,0,0,0-.85-3.07l-3.37-3.37a3.34,3.34,0,0,0-2.3-.91,3.2,3.2,0,0,0-2.29.93l-2.3,2.31C15.43,23.12,18,29.85,24,35.92c4.3,4.34,9.11,7,12.54,7M30,8.72A21.3,21.3,0,0,0,12.76,42.5L9.84,50.21l8.46-2.44A21.28,21.28,0,1,0,30,8.72ZM36.56,42c-3.05,0-7.65-2.52-11.83-6.74C19.15,29.63,16.65,23.3,18.88,21l2.29-2.29A2.21,2.21,0,0,1,22.75,18a2.34,2.34,0,0,1,1.61.64L27.71,22a2.22,2.22,0,0,1-.85,3.67,2.15,2.15,0,0,0-1.43,2.61c.58,2.5,3.83,5.58,6.22,6.17a2.07,2.07,0,0,0,.5.06A2.22,2.22,0,0,0,34.26,33a2.16,2.16,0,0,1,2.09-1.5,2.25,2.25,0,0,1,1.58.65l3.35,3.35a2.51,2.51,0,0,1,0,3.3L39,41.06a3.34,3.34,0,0,1-2.48.89Z"/></g></g></svg>