<svg xmlns="http://www.w3.org/2000/svg" viewBox="0 0 60 60"><defs><style>.cls-1{fill:none;stroke:#000;stroke-linecap:round;stroke-linejoin:round;}</style></defs><g id="圖層_4" data-name="圖層 4"><path d="M39.11,26.48c6.16,0,11.17,4.09,11.17,9.13a8.29,8.29,0,0,1-3.67,6.69l-.55.43a1,1,0,0,0-.35,1.07l.23.81L44.79,44a1.09,1.09,0,0,0-.49-.13,1.13,1.13,0,0,0-.32.05l-.43.15a14.28,14.28,0,0,1-4.44.71C33,44.74,28,40.64,28,35.61s5-9.13,11.15-9.13m4.56,9.12a2.53,2.53,0,1,0-2.51-2.53,2.57,2.57,0,0,0,2.51,2.53m-9.1,0A2.53,2.53,0,1,0,32,33.07a2.56,2.56,0,0,0,2.53,2.53m4.54-10.12C32.29,25.48,27,30.08,27,35.61s5.33,10.13,12.15,10.13A15.32,15.32,0,0,0,43.87,45l.43-.15,3.29,1.86-.92-3.17.55-.42a9.29,9.29,0,0,0,4.06-7.49c0-5.53-5.33-10.13-12.17-10.13Zm4.56,9.12a1.53,1.53,0,1,1,1.53-1.53,1.56,1.56,0,0,1-1.53,1.53Zm-9.1,0a1.53,1.53,0,1,1,1.51-1.53,1.56,1.56,0,0,1-1.51,1.53Z"/><path class="cls-1" d="M38.82,23.46c-1.39-5.73-7.49-10.15-14.9-10.15C15.47,13.31,8.72,19,8.72,26c0,4,2.11,7.41,5.64,9.8l.63.43-1.38,4.15L18,37.63l.47.17a16.71,16.71,0,0,0,5.43.85c.49,0,1,0,1.46-.06a10.48,10.48,0,0,1-.44-3C24.94,28.87,31.2,23.6,38.82,23.46Zm-21,0a2,2,0,1,1,2-2A2,2,0,0,1,17.84,23.44ZM30,19.4a2,2,0,1,1-2,2A2,2,0,0,1,30,19.4Z"/></g></svg>