<svg xmlns="http://www.w3.org/2000/svg" viewBox="0 0 60 60"><g id="圖層_4" data-name="圖層 4"><path d="M40,12.66h0m4.19.3h0m-23.89.12,8.82,15a1,1,0,0,0,.86.49h0a1,1,0,0,0,.86-.49l8.88-14.95a7.84,7.84,0,0,0,1.91.25,8.42,8.42,0,0,0,.9,0l-11.25,19a1,1,0,0,0-.14.54l.35,13.91A7.69,7.69,0,0,0,30,46.63a8.53,8.53,0,0,0-1.59.19l.43-13.92a1,1,0,0,0-.14-.54L17.39,13.22a7.85,7.85,0,0,0,1,.06,12.1,12.1,0,0,0,2-.2M44,12l-.1,0a7.5,7.5,0,0,1-2.23.35A7.36,7.36,0,0,1,39.51,12l-.1,0a.3.3,0,0,0-.25.14L30,27.56,20.93,12.14a.29.29,0,0,0-.25-.14h-.06a13.71,13.71,0,0,1-2.27.27A13.71,13.71,0,0,1,16.08,12H16a.3.3,0,0,0-.24.12.29.29,0,0,0,0,.32L27.84,32.87,27.38,47.7a.32.32,0,0,0,.11.24.28.28,0,0,0,.18.06h.08A11.61,11.61,0,0,1,30,47.63a10.38,10.38,0,0,1,2.16.36h.08a.29.29,0,0,0,.29-.3l-.37-14.83L44.23,12.44a.3.3,0,0,0,0-.33A.3.3,0,0,0,44,12Z"/></g></svg>