<svg id="圖層_2" data-name="圖層 2" xmlns="http://www.w3.org/2000/svg" viewBox="0 0 60 60"><path d="M49,31.19a19.39,19.39,0,0,1-7.4,12.09,22.69,22.69,0,0,1-5.33,2.88c-.2,0-.22-.21-.13-1,.17-1.35.33-1.63,1.1-2a17.76,17.76,0,0,0,4.58-3.28,17.47,17.47,0,0,0,4.59-8.07,21.54,21.54,0,0,0-.11-8A17,17,0,0,0,33.47,11.59a21.86,21.86,0,0,0-6.85,0A17.17,17.17,0,0,0,13.67,24.21a23.2,23.2,0,0,0,0,7.62A17.53,17.53,0,0,0,21,42.13a16.87,16.87,0,0,0,1.88,1.08c.77.32.93.6,1.08,1.95.09.82.07,1.06-.13,1.06a14.55,14.55,0,0,1-2.05-.88l-.09-.07A19,19,0,0,1,11.08,31.55,25.26,25.26,0,0,1,11,24.61a19.29,19.29,0,0,1,5-9.82,19.14,19.14,0,0,1,27.81-.16,18.85,18.85,0,0,1,5.17,10A26.39,26.39,0,0,1,49,31.19Z"/><path d="M42.82,29.47A12.83,12.83,0,0,1,40,36.05a11.46,11.46,0,0,1-2.95,2.62A4.42,4.42,0,0,1,37,37.3V35.92l1-1.14a10.4,10.4,0,0,0-.59-14.2,9.91,9.91,0,0,0-5.53-2.85,7.11,7.11,0,0,0-3.31,0,10,10,0,0,0-5.73,2.87,10.36,10.36,0,0,0-.61,14.2l.95,1.14V37.3A3.5,3.5,0,0,1,23,38.69a6.66,6.66,0,0,1-1.17-.82l-.07,0A13.79,13.79,0,0,1,17.45,31a15.11,15.11,0,0,1,0-6.21,13.41,13.41,0,0,1,8.69-9.17,15.76,15.76,0,0,1,6.67-.24A13,13,0,0,1,42.82,29.47Z"/><path d="M34.84,26.54a4.55,4.55,0,0,1-7.72,3.27h0a4.31,4.31,0,0,1-1.56-3.45,4.49,4.49,0,0,1,2.54-4A4.72,4.72,0,0,1,30.66,22h0A4.54,4.54,0,0,1,34.84,26.54Z"/><path d="M34.85,40c-.16,1.86-.49,4.58-.75,6.33a12.63,12.63,0,0,1-.67,3.08,3,3,0,0,1-.9,1.25,2.85,2.85,0,0,1-1.13.53,4.42,4.42,0,0,1-1.06.09,4.59,4.59,0,0,1-1.06-.09,3.29,3.29,0,0,1-1.37-.59,2.22,2.22,0,0,1-.4-.41c-.74-.71-1.05-2.07-1.53-5.4C25.2,39.38,25,36,25.48,35c.6-1.41,2.22-2.2,4.5-2.21a5.57,5.57,0,0,1,3.65,1.07h0l.14.09a2.72,2.72,0,0,1,.87,1A3.82,3.82,0,0,1,35,36.42,24,24,0,0,1,34.85,40Z"/></svg>