<svg id="圖層_2" data-name="圖層 2" xmlns="http://www.w3.org/2000/svg" viewBox="0 0 60 60"><g id="_20.Dribbble" data-name="20.Dribbble"><path d="M36.38,31.92A85.62,85.62,0,0,1,41,48.19a19.85,19.85,0,0,0,4-3.14,21.33,21.33,0,0,0,6-11.49,26.89,26.89,0,0,0-10.11-2,25,25,0,0,0-4.47.38Z"/><path d="M45.05,15h0A21.13,21.13,0,0,0,30,8.72a20,20,0,0,0-6.44,1,84.82,84.82,0,0,1,8.67,13.2A49.71,49.71,0,0,0,45.05,15Z"/><path d="M46.76,16.86a52,52,0,0,1-13.36,8.3c.7,1.44,1.39,2.92,2,4.41A32.08,32.08,0,0,1,40.9,29,28.65,28.65,0,0,1,51.28,31V30A21.18,21.18,0,0,0,46.76,16.86Z"/><path d="M16.91,46.76a21.27,21.27,0,0,0,21.81,2.66,87.45,87.45,0,0,0-4.78-17A26.64,26.64,0,0,0,16.91,46.76Z"/><path d="M29.57,31.33a28,28,0,0,1,3.36-1.17c-.59-1.38-1.23-2.71-1.92-4a51.8,51.8,0,0,1-18,3.19c-1.44,0-2.87,0-4.31-.16V30a21.29,21.29,0,0,0,6.23,15A29.19,29.19,0,0,1,29.57,31.33Z"/><path d="M29.89,23.88a85.23,85.23,0,0,0-8.83-13.19A22.7,22.7,0,0,0,15,15a20.93,20.93,0,0,0-6,11.7c1.33.11,2.71.16,4,.16a49.1,49.1,0,0,0,16.86-2.93Z"/></g></svg>