<svg id="圖層_2" data-name="圖層 2" xmlns="http://www.w3.org/2000/svg" viewBox="0 0 60 60"><g id="_01._Facebook" data-name="01. Facebook"><path id="Icon" d="M24.91,32.74H19.64c-.85,0-1.12-.32-1.12-1.12V25.18c0-.85.32-1.12,1.12-1.12h5.27V19.37a11.85,11.85,0,0,1,1.44-6,8.88,8.88,0,0,1,4.74-3.95,12.05,12.05,0,0,1,4.1-.69h5.22c.75,0,1.07.32,1.07,1.07v6.07c0,.74-.32,1.06-1.07,1.06-1.44,0-2.87,0-4.31.06a1.92,1.92,0,0,0-2.19,2.18c0,1.6,0,3.14,0,4.79h6.18c.86,0,1.17.32,1.17,1.18v6.44c0,.85-.26,1.12-1.17,1.12H33.91V50.05c0,.91-.26,1.23-1.22,1.23H26c-.8,0-1.12-.32-1.12-1.12V32.74Z"/></g></svg>