<svg id="圖層_2" data-name="圖層 2" xmlns="http://www.w3.org/2000/svg" viewBox="0 0 60 60"><path id="_09.Line" data-name="09.Line" d="M30,9.64C18.29,9.64,8.72,17.44,8.72,27c0,8.55,7.55,15.72,17.8,17.11.69.15,1.65.47,1.86,1.06a3.86,3.86,0,0,1,.05,1.91l-.26,1.81c-.11.53-.43,2.12,1.86,1.17S42.3,42.79,46.76,37.63c3-3.34,4.52-6.8,4.52-10.62C51.22,17.39,41.71,9.64,30,9.64Zm-8.34,23H17.38a1.16,1.16,0,0,1-1.11-1.11v-8.5a1.12,1.12,0,1,1,2.23,0v7.38h3.13a1.12,1.12,0,1,1,0,2.23ZM26,31.52a1.09,1.09,0,0,1-1.11,1.12,1.12,1.12,0,0,1-1.12-1.12V23a1.09,1.09,0,0,1,1.12-1.11A1.12,1.12,0,0,1,26,23Zm10.15,0a1.17,1.17,0,0,1-.74,1.07.88.88,0,0,1-.38,0,1.12,1.12,0,0,1-.9-.43l-4.3-5.89v5.26a1.09,1.09,0,0,1-1.12,1.11,1.11,1.11,0,0,1-1.11-1.11v-8.5A1.15,1.15,0,0,1,28.38,22,.86.86,0,0,1,28.7,22a1,1,0,0,1,.9.48L34,28.39V23.13A1.09,1.09,0,0,1,35.07,22a1.13,1.13,0,0,1,1.12,1.12ZM43,26.16a1.12,1.12,0,0,1,1.12,1.11A1.09,1.09,0,0,1,43,28.39H39.91v2H43a1.12,1.12,0,0,1,1.12,1.11A1.09,1.09,0,0,1,43,32.64H38.74a1.12,1.12,0,0,1-1.12-1.12V23a1.09,1.09,0,0,1,1.12-1.11H43A1.12,1.12,0,0,1,44.11,23,1.09,1.09,0,0,1,43,24.14H39.91v2Z"/></svg>