<svg id="圖層_2" data-name="圖層 2" xmlns="http://www.w3.org/2000/svg" viewBox="0 0 60 60"><g id="_34.Messenger" data-name="34.Messenger"><path id="Icon" d="M30,8.78c-11.74,0-21.25,8.81-21.25,19.71a19.13,19.13,0,0,0,7.92,15.35l.1,6.91a.51.51,0,0,0,.75.42l6.64-3.72a23.48,23.48,0,0,0,5.9.75c11.74,0,21.25-8.82,21.25-19.71S41.66,8.78,30,8.78Zm1.54,26.13L27,30.19A.89.89,0,0,0,26,30l-8,4.3a.31.31,0,0,1-.37-.48l9.4-10a.75.75,0,0,1,1,0l4.52,4.84a.82.82,0,0,0,1,.16l7.81-4.25a.31.31,0,0,1,.37.48l-9.25,9.82a.73.73,0,0,1-1,0Z"/></g></svg>