<svg id="圖層_2" data-name="圖層 2" xmlns="http://www.w3.org/2000/svg" viewBox="0 0 60 60"><g id="_14.Pinterest" data-name="14.Pinterest"><g id="Icon"><path d="M51.27,30.64a21.28,21.28,0,1,0-30.58,18.5.58.58,0,0,0,.85-.58,16,16,0,0,1,.27-4c.26-1.17,1.33-5.64,2-8.56a10.86,10.86,0,0,0,.1-4.36A8,8,0,0,1,23.77,30c0-3.14,1.81-5.48,4.1-5.48,1.91,0,2.87,1.44,2.87,3.19,0,1.92-1.22,4.84-1.86,7.55a3.3,3.3,0,0,0,3.35,4.1c4,0,7.13-4.26,7.13-10.37,0-5.43-3.89-9.2-9.47-9.2a9.8,9.8,0,0,0-10.21,9.84,8.5,8.5,0,0,0,1.7,5.15.76.76,0,0,1,.16.64c-.16.69-.53,2.24-.64,2.56s-.32.47-.74.31c-2.82-1.38-4.63-5.53-4.63-8.82,0-7.13,5.16-13.67,15-13.67,7.81,0,13.93,5.58,13.93,13.08,0,7.82-4.89,14-11.75,14a6.57,6.57,0,0,1-4.52-1.75.57.57,0,0,0-1,.26c-.37,1.33-.91,3.57-1.12,4.26a18.24,18.24,0,0,1-1.75,4.09.56.56,0,0,0,.37.85,20.37,20.37,0,0,0,5.42.64A21.63,21.63,0,0,0,51.27,30.64Z"/></g></g></svg>