<svg id="圖層_2" data-name="圖層 2" xmlns="http://www.w3.org/2000/svg" viewBox="0 0 60 60"><g id="_18.Soundcloud" data-name="18.Soundcloud"><path d="M9.36,36.65a.16.16,0,1,1-.32,0l-.32-2.29L9,32a.17.17,0,0,1,.16-.16.14.14,0,0,1,.16.16l.37,2.34Z"/><path d="M11,38.09a.17.17,0,0,1-.16.15c-.11,0-.16-.05-.16-.15l-.43-3.73.43-3.83a.17.17,0,0,1,.16-.16.15.15,0,0,1,.16.16l.48,3.83Z"/><path d="M12.66,38.72a.22.22,0,1,1-.43,0l-.37-4.36.37-4.52a.22.22,0,0,1,.43,0l.42,4.52Z"/><path d="M14.36,38.83a.26.26,0,0,1-.27.27.29.29,0,0,1-.26-.27l-.32-4.47.37-4.68a.26.26,0,0,1,.27-.27c.1,0,.21.11.26.27l.43,4.68Z"/><path d="M16.12,38.88a.29.29,0,0,1-.27.27.26.26,0,0,1-.27-.27l-.37-4.52.37-4.31a.27.27,0,0,1,.54,0l.42,4.31Z"/><path d="M17.87,38.88a.32.32,0,1,1-.64,0l-.32-4.52.32-7a.32.32,0,0,1,.64,0l.37,7Z"/><path d="M19.63,38.88a.38.38,0,1,1-.75,0l-.32-4.52.32-8.62a.38.38,0,0,1,.75,0L20,34.36Z"/><path d="M21.38,38.83a.37.37,0,0,1-.74,0l-.27-4.47L20.64,25a.37.37,0,1,1,.74,0l.32,9.36Z"/><path d="M23.19,38.78a.42.42,0,0,1-.42.42.45.45,0,0,1-.43-.42l-.27-4.42.27-9.68a.41.41,0,0,1,.43-.42.45.45,0,0,1,.42.42l.32,9.68Z"/><path d="M25,38.72a.48.48,0,1,1-1,0l-.26-4.41L24,24.89a.48.48,0,1,1,1,0l.27,9.42Z"/><path d="M26.81,38.72a.47.47,0,0,1-.48.48.56.56,0,0,1-.53-.48l-.22-4.36.22-9.09a.49.49,0,0,1,.53-.48.47.47,0,0,1,.48.48l.26,9.09Z"/><path d="M28.67,38.24v.43a.46.46,0,0,1-.16.37.47.47,0,0,1-.37.16.49.49,0,0,1-.43-.21.79.79,0,0,1-.1-.32l-.22-4.36.16-10.69v-.11a.44.44,0,0,1,.27-.43c.11,0,.16-.1.26-.1a.75.75,0,0,1,.32.1.56.56,0,0,1,.27.43l.21,10.8Z"/><path d="M30.53,38.62a.58.58,0,0,1-.58.58.59.59,0,0,1-.59-.58l-.11-2.13-.1-2.18.16-11.76a.61.61,0,0,1,.21-.42.44.44,0,0,1,.37-.11.65.65,0,0,1,.32.11.55.55,0,0,1,.27.48l.26,11.81Z"/><path d="M46.12,39.2H31.6a.62.62,0,0,1-.59-.58V22c0-.32.11-.48.48-.64a9.92,9.92,0,0,1,3.35-.64A9.25,9.25,0,0,1,44,29.15a5.17,5.17,0,0,1,7.24,4.79,5.12,5.12,0,0,1-5.16,5.26Z"/></g></svg>