<svg id="圖層_2" data-name="圖層 2" xmlns="http://www.w3.org/2000/svg" viewBox="0 0 60 60"><path d="M47.6,18.07H12.41a1,1,0,0,0-1,1.09l1.32,28.17a4.15,4.15,0,0,0,4.15,4H43.17a4.16,4.16,0,0,0,4.15-4l1.32-28.17A1.05,1.05,0,0,0,47.6,18.07ZM29.94,45a11.32,11.32,0,0,1-6.66-2.55l-.11-.09,1.09-1.6.13.12a9.72,9.72,0,0,0,5.55,2.21c2.64,0,4.79-1.55,4.79-3.44,0-2.47-1.94-3.35-5.13-4.52-2.73-1-5.82-2.13-5.82-5.51,0-3,2.7-5.23,6.29-5.23a10.58,10.58,0,0,1,5.7,1.8l.17.11-1,1.61-.13-.09-.7-.42a8.85,8.85,0,0,0-4-1.09c-2.54,0-4.38,1.39-4.38,3.31s1.73,2.68,4.57,3.72,6.38,2.33,6.38,6.31C36.64,42.63,33.7,45,29.94,45Z"/><path d="M38.82,18.58H36.75c0-4.29-3-7.78-6.75-7.78s-6.75,3.49-6.75,7.78H21.18c0-5.43,3.95-9.86,8.82-9.86S38.82,13.15,38.82,18.58Z"/></svg>