<svg id="圖層_2" data-name="圖層 2" xmlns="http://www.w3.org/2000/svg" viewBox="0 0 60 60"><g id="_15.Spotify" data-name="15.Spotify"><path d="M30,8.72A21.28,21.28,0,1,0,51.28,30,21.27,21.27,0,0,0,30,8.72ZM37.87,38a1.24,1.24,0,0,1-1.11.64,1.35,1.35,0,0,1-.64-.16,19.16,19.16,0,0,0-9.95-2.23A25,25,0,0,0,21,37a1.3,1.3,0,1,1-.69-2.5,24.41,24.41,0,0,1,5.69-.8,26.24,26.24,0,0,1,5.48.37,19.15,19.15,0,0,1,5.9,2.18A1.43,1.43,0,0,1,37.87,38Zm2.34-4.94a1.51,1.51,0,0,1-1.33.74,1.21,1.21,0,0,1-.74-.21A22.25,22.25,0,0,0,26.33,31a30.19,30.19,0,0,0-6.12.8,1.52,1.52,0,0,1-.8-2.93,28.86,28.86,0,0,1,6.76-.9,28.47,28.47,0,0,1,6.49.42,21.07,21.07,0,0,1,7,2.56,1.54,1.54,0,0,1,.53,2.13Zm3.09-5.48a1.88,1.88,0,0,1-1.6.9,2.1,2.1,0,0,1-1-.27C31.22,22.66,18.88,26,18.78,26a1.87,1.87,0,0,1-1-3.62,39.25,39.25,0,0,1,8.3-1.11,35.24,35.24,0,0,1,8,.58A26.48,26.48,0,0,1,42.71,25a2,2,0,0,1,.59,2.61Z"/></g></svg>