<svg id="圖層_2" data-name="圖層 2" xmlns="http://www.w3.org/2000/svg" viewBox="0 0 60 60"><g id="_13.Skype" data-name="13.Skype"><path id="Icon" d="M50,34.49c3.09-13.84-9-26.4-23.3-24-7.72-4.79-18,.64-18,9.84a11.54,11.54,0,0,0,1.6,5.86A20.15,20.15,0,0,0,33.94,49.86C44,55.19,55.07,44.6,50,34.49ZM36.5,42.84c-3.73,1.54-9.9,1.54-13.62-.42-5.32-2.82-6.23-9.21-1.65-9.21,3.46,0,2.34,4,5.85,5.64a8.43,8.43,0,0,0,7-.53c2-1.33,1.81-3.41.75-4.37-2.82-2.6-11-1.59-14.69-6.17a6.7,6.7,0,0,1,.06-8c3.45-4.47,13.62-4.74,18-1.39,4,3.14,2.93,7.24-.32,7.24-3.88,0-1.86-5.11-8.19-5.11-4.58,0-6.39,3.25-3.14,4.84C30.91,27.57,42,26.82,42,35.34,42,38.85,39.85,41.46,36.5,42.84Z"/></g></svg>