<svg id="圖層_2" data-name="圖層 2" xmlns="http://www.w3.org/2000/svg" viewBox="0 0 60 60"><g id="_19.Tumblr" data-name="19.Tumblr"><path id="Icon" d="M21.65,26.12H16.91V20.59a.59.59,0,0,1,.43-.64c5.53-1.6,8.14-9.79,8.14-10.7,0-.37.21-.53.58-.53h5.06c.37,0,.48.16.48.53V19.47h10v6.65H31.76c0,.16-.11,14.37,0,15.06a3.19,3.19,0,0,0,1.7,2.34,7,7,0,0,0,5,.7,23.5,23.5,0,0,0,4.58-1.87v6.18c0,.37-.11.53-.43.63a21.32,21.32,0,0,1-10.58,2.08,12.43,12.43,0,0,1-8.36-3.46,6.17,6.17,0,0,1-2.07-4.36V26.12Z"/></g></svg>