<svg id="圖層_2" data-name="圖層 2" xmlns="http://www.w3.org/2000/svg" viewBox="0 0 60 60"><g id="_11.Wechat" data-name="11.Wechat"><path d="M32.82,14.5C21,7.79,6.21,17.16,9.08,28.17a13.35,13.35,0,0,0,5.81,7.88c-.54,1.49-1,3-1.49,4.52,1.7-.9,3.45-1.86,5.16-2.77a17.49,17.49,0,0,0,6.49.91c-2.71-7.82,4.26-16.13,14.58-15.38a13.58,13.58,0,0,0-6.81-8.83Zm-14,8.62a2.24,2.24,0,1,1,2.24-2.24A2.25,2.25,0,0,1,18.82,23.12Zm10.7,0a2.24,2.24,0,1,1,2.23-2.24A2.26,2.26,0,0,1,29.52,23.12Z"/><path d="M45,25.72C33.67,20,20.79,30.51,26.7,40.25c2.71,4.58,9.05,7.45,16.5,5.27,1.49.59,2.82,1.54,4.25,2.24-.37-1.28-.8-2.51-1.22-3.73C54,38.5,52.24,29.45,45,25.72ZM34,33.39a1.76,1.76,0,1,1,1.76-1.76A1.78,1.78,0,0,1,34,33.39Zm8.51,0a1.76,1.76,0,1,1,1.76-1.76A1.77,1.77,0,0,1,42.5,33.39Z"/></g></svg>