<svg id="圖層_2" data-name="圖層 2" xmlns="http://www.w3.org/2000/svg" viewBox="0 0 60 60"><path id="_08.Whatsapp" data-name="08.Whatsapp" d="M30,8.72A21.3,21.3,0,0,0,12.76,42.5L9.84,50.21l8.46-2.44A21.28,21.28,0,1,0,30,8.72ZM41.33,38.83,39,41.06c-2.39,2.4-8.72-.21-14.31-5.85S16.65,23.3,18.88,21l2.29-2.29a2.31,2.31,0,0,1,3.19,0L27.71,22a2.22,2.22,0,0,1-.85,3.67,2.15,2.15,0,0,0-1.43,2.61c.58,2.5,3.83,5.58,6.22,6.17A2.23,2.23,0,0,0,34.26,33a2.22,2.22,0,0,1,3.67-.85l3.35,3.35A2.51,2.51,0,0,1,41.33,38.83Z"/></svg>