<?xml version="1.0" encoding="utf-8"?>
<!-- Generator: Adobe Illustrator 25.0.0, SVG Export Plug-In . SVG Version: 6.00 Build 0)  -->
<svg version="1.1" id="圖層_2_1_" xmlns="http://www.w3.org/2000/svg" xmlns:xlink="http://www.w3.org/1999/xlink" x="0px"
	 y="0px" viewBox="0 0 60 60" style="enable-background:new 0 0 60 60;" xml:space="preserve">
<style type="text/css">
	.st0{fill:#8A8A8A;}
</style>
<g id="_14.Pinterest">
	<g id="Icon">
		<path class="st0" d="M51.3,30.6c0.4-11.7-8.9-21.6-20.6-21.9C18.9,8.4,9.1,17.6,8.7,29.4c-0.3,8.4,4.4,16.1,12,19.8
			c0.3,0.2,0.6,0,0.8-0.2c0.1-0.1,0.1-0.2,0.1-0.3c-0.1-1.3,0-2.7,0.3-4c0.3-1.2,1.3-5.6,2-8.6c0.3-1.4,0.4-2.9,0.1-4.4
			c-0.1-0.5-0.1-1.1-0.1-1.6c0-3.1,1.8-5.5,4.1-5.5c1.9,0,2.9,1.4,2.9,3.2c0,1.9-1.2,4.8-1.9,7.6c-0.4,1.8,0.6,3.6,2.4,4
			c0.3,0.1,0.6,0.1,1,0.1c4,0,7.1-4.3,7.1-10.4c0-5.4-3.9-9.2-9.5-9.2c-5.4-0.2-10,4-10.2,9.4c0,0.2,0,0.3,0,0.5
			c0,1.9,0.6,3.7,1.7,5.2c0.1,0.2,0.2,0.4,0.2,0.6c-0.2,0.7-0.5,2.2-0.6,2.6s-0.3,0.5-0.7,0.3c-2.8-1.4-4.6-5.5-4.6-8.8
			c0-7.1,5.2-13.7,15-13.7c7.8,0,13.9,5.6,13.9,13.1c0,7.8-4.9,14-11.8,14c-1.7,0-3.3-0.6-4.5-1.8c-0.2-0.2-0.6-0.3-0.8-0.1
			c-0.1,0.1-0.2,0.2-0.2,0.3c-0.4,1.3-0.9,3.6-1.1,4.3c-0.4,1.4-1,2.8-1.8,4.1c-0.2,0.3-0.1,0.6,0.2,0.8c0.1,0,0.1,0.1,0.2,0.1
			c1.8,0.5,3.6,0.7,5.4,0.6C41.5,51,50.7,42,51.3,30.6z"/>
	</g>
</g>
</svg>
