<?xml version="1.0" encoding="utf-8"?>
<!-- Generator: Adobe Illustrator 25.0.0, SVG Export Plug-In . SVG Version: 6.00 Build 0)  -->
<svg version="1.1" id="圖層_2_1_" xmlns="http://www.w3.org/2000/svg" xmlns:xlink="http://www.w3.org/1999/xlink" x="0px"
	 y="0px" viewBox="0 0 60 60" style="enable-background:new 0 0 60 60;" xml:space="preserve">
<style type="text/css">
	.st0{fill:#8A8A8A;}
</style>
<g id="_34.Messenger">
	<path id="Icon" class="st0" d="M30,8.8c-11.7,0-21.2,8.8-21.2,19.7c0,6.1,3,11.8,7.9,15.3l0.1,6.9c0,0.3,0.3,0.5,0.5,0.5
		c0.1,0,0.1,0,0.2-0.1l6.6-3.7c1.9,0.5,3.9,0.8,5.9,0.8c11.7,0,21.2-8.8,21.2-19.7S41.7,8.8,30,8.8z M31.5,34.9L27,30.2
		c-0.3-0.3-0.7-0.3-1-0.2l-8,4.3c-0.2,0.1-0.3,0-0.4-0.1c-0.1-0.1,0-0.2,0-0.3l9.4-10c0.3-0.3,0.7-0.3,1,0l4.5,4.8
		c0.3,0.3,0.7,0.3,1,0.2l7.8-4.2c0.2-0.1,0.3,0,0.4,0.1c0.1,0.1,0,0.2,0,0.3l-9.2,9.8C32.2,35.1,31.8,35.1,31.5,34.9L31.5,34.9z"/>
</g>
</svg>
