<?xml version="1.0" encoding="utf-8"?>
<!-- Generator: Adobe Illustrator 25.0.0, SVG Export Plug-In . SVG Version: 6.00 Build 0)  -->
<svg version="1.1" id="圖層_2_1_" xmlns="http://www.w3.org/2000/svg" xmlns:xlink="http://www.w3.org/1999/xlink" x="0px"
	 y="0px" viewBox="0 0 60 60" style="enable-background:new 0 0 60 60;" xml:space="preserve">
<style type="text/css">
	.st0{fill:#8A8A8A;}
</style>
<path class="st0" d="M47.6,18.1H12.4c-0.6,0-1,0.4-1,1c0,0,0,0.1,0,0.1l1.3,28.2c0.1,2.2,1.9,4,4.1,4h26.3c2.2,0,4.1-1.8,4.2-4
	l1.3-28.2C48.7,18.6,48.2,18.1,47.6,18.1C47.6,18.1,47.6,18.1,47.6,18.1z M29.9,45c-2.4-0.1-4.8-1-6.7-2.5l-0.1-0.1l1.1-1.6l0.1,0.1
	c1.6,1.3,3.5,2.1,5.5,2.2c2.6,0,4.8-1.5,4.8-3.4c0-2.5-1.9-3.3-5.1-4.5c-2.7-1-5.8-2.1-5.8-5.5c0-3,2.7-5.2,6.3-5.2
	c2,0,4,0.7,5.7,1.8l0.2,0.1l-1,1.6l-0.1-0.1l-0.7-0.4c-1.2-0.7-2.6-1-4-1.1c-2.5,0-4.4,1.4-4.4,3.3s1.7,2.7,4.6,3.7s6.4,2.3,6.4,6.3
	C36.6,42.6,33.7,45,29.9,45z"/>
<path class="st0" d="M38.8,18.6h-2.1c0-4.3-3-7.8-6.8-7.8s-6.8,3.5-6.8,7.8h-2.1c0-5.4,4-9.9,8.8-9.9S38.8,13.1,38.8,18.6z"/>
</svg>
